<?xml version="1.0" standalone="no"?>
<!DOCTYPE svg PUBLIC "-//W3C//DTD SVG 20010904//EN"
 "http://www.w3.org/TR/2001/REC-SVG-20010904/DTD/svg10.dtd">
<svg version="1.0" xmlns="http://www.w3.org/2000/svg"
 width="2084.000000pt" height="2084.000000pt" viewBox="0 0 2084.000000 2084.000000"
 preserveAspectRatio="xMidYMid meet">
<metadata>
Created by potrace 1.14, written by Peter Selinger 2001-2017
</metadata>
<g transform="translate(0.000000,2084.000000) scale(0.100000,-0.100000)"
fill="#000000" stroke="none">
<path d="M10207 15484 c-1 -1 -72 -5 -157 -9 -85 -3 -175 -8 -200 -10 -25 -2
-82 -6 -127 -10 -45 -3 -90 -7 -100 -9 -10 -2 -49 -7 -88 -11 -38 -4 -77 -9
-85 -10 -8 -1 -40 -6 -70 -10 -67 -8 -107 -14 -140 -20 -14 -2 -44 -7 -68 -10
-40 -6 -92 -15 -258 -45 -77 -15 -81 -17 -88 -65 -13 -81 -25 -172 -31 -240
-4 -38 -8 -80 -10 -93 -24 -148 -24 -778 -1 -982 3 -19 7 -64 11 -100 7 -74
10 -95 25 -200 6 -41 13 -86 15 -100 2 -14 7 -41 10 -60 4 -19 8 -46 10 -60 3
-20 71 -324 90 -400 45 -182 174 -561 255 -745 10 -22 30 -69 46 -105 67 -155
206 -418 317 -600 333 -546 717 -985 1250 -1429 18 -15 33 -2 212 190 103 110
322 374 398 479 9 14 40 56 67 94 56 77 57 69 -14 124 -170 132 -531 499 -661
672 -11 15 -46 62 -78 104 -153 202 -293 432 -418 686 -33 69 -65 133 -70 142
-18 35 -108 266 -144 368 -57 164 -119 396 -149 550 -2 14 -9 45 -14 70 -6 25
-13 65 -16 90 -3 25 -8 56 -11 70 -3 14 -8 50 -11 80 -3 30 -7 62 -9 70 -2 8
-7 58 -10 110 -4 52 -9 111 -11 130 -5 47 -5 451 1 520 9 121 17 195 21 199 4
4 29 6 184 16 100 5 587 5 675 0 39 -3 97 -7 130 -9 33 -3 72 -5 87 -5 22 -1
26 -5 23 -23 -26 -174 -37 -526 -21 -683 4 -33 9 -85 12 -115 6 -65 22 -177
35 -240 5 -25 11 -57 13 -73 3 -15 7 -35 10 -45 3 -9 7 -28 10 -42 44 -231
200 -627 349 -885 42 -73 166 -266 177 -275 3 -3 23 -30 44 -60 91 -129 316
-373 466 -506 317 -280 755 -529 1158 -658 98 -32 296 -86 313 -86 16 0 205
460 290 707 40 115 146 458 153 496 3 12 16 65 30 117 14 52 37 149 52 215 34
160 33 156 40 190 3 17 9 48 14 70 5 22 12 63 15 90 4 28 10 68 15 90 5 22 11
60 15 85 3 25 8 56 10 70 12 79 34 261 40 335 4 39 8 86 10 105 3 36 16 227
20 315 3 51 7 307 6 336 -1 9 -11 21 -23 27 -13 6 -59 32 -103 57 -127 72
-416 217 -422 211 -3 -2 -7 -164 -9 -358 -2 -194 -5 -366 -8 -383 -2 -16 -7
-73 -11 -125 -4 -52 -8 -108 -10 -125 -2 -16 -6 -57 -10 -90 -3 -33 -8 -73
-10 -90 -3 -16 -9 -66 -15 -111 -6 -44 -12 -89 -14 -100 -2 -10 -7 -39 -11
-64 -4 -25 -9 -52 -10 -60 -1 -8 -9 -49 -16 -90 -7 -41 -13 -77 -14 -80 -1 -3
-7 -32 -14 -65 -28 -136 -89 -386 -123 -503 -19 -65 -23 -72 -42 -66 -50 15
-281 138 -312 165 -11 11 -24 19 -28 19 -9 0 -147 101 -215 159 -423 356 -712
898 -768 1438 -10 97 -10 394 0 487 15 137 64 349 113 496 3 8 5 15 4 15 -1 0
6 13 14 30 12 23 13 31 3 36 -10 6 -132 34 -232 55 -56 11 -74 15 -125 24 -30
6 -66 12 -80 15 -14 3 -70 12 -125 20 -55 9 -107 17 -115 20 -8 2 -40 6 -71
10 -31 3 -65 7 -75 9 -26 5 -165 19 -299 31 -38 3 -90 8 -115 10 -134 12 -763
27 -773 19z"/>
<path d="M8220 15168 c-14 -5 -32 -11 -41 -13 -86 -18 -512 -170 -724 -259
-217 -92 -540 -246 -705 -336 -52 -29 -112 -61 -132 -72 -20 -11 -42 -25 -48
-33 -10 -12 -7 -304 5 -484 10 -149 21 -279 30 -351 2 -19 7 -60 10 -90 3 -30
13 -102 21 -160 14 -98 18 -121 29 -192 3 -16 7 -43 10 -60 35 -212 119 -583
171 -753 9 -27 17 -61 20 -74 19 -94 242 -719 309 -865 7 -17 35 -78 60 -136
57 -129 207 -429 263 -528 23 -41 42 -76 42 -78 0 -7 207 -350 266 -439 55
-85 188 -278 206 -300 5 -5 45 -59 90 -120 217 -294 422 -529 718 -825 256
-256 492 -466 709 -630 18 -14 38 -30 44 -35 99 -88 595 -423 789 -533 l57
-33 140 86 c250 152 491 317 706 484 61 47 112 88 115 91 3 3 23 19 45 35 22
17 42 32 45 35 3 3 55 48 115 100 141 121 164 142 307 280 173 166 407 408
408 421 0 4 -53 28 -117 54 -65 27 -183 79 -263 117 l-146 69 -165 -163 c-151
-150 -272 -262 -374 -349 -22 -19 -42 -37 -45 -40 -3 -3 -67 -56 -144 -117
l-138 -110 -77 46 c-923 563 -1717 1373 -2266 2312 -121 207 -263 486 -339
665 -26 61 -51 117 -56 127 -5 9 -23 54 -41 100 -17 45 -42 112 -56 148 -111
283 -269 868 -307 1135 -2 11 -6 34 -9 50 -4 17 -9 48 -12 70 -4 35 -13 100
-29 215 -7 47 -14 111 -21 190 -3 36 -8 83 -10 105 -2 22 -7 112 -10 200 -4
88 -8 179 -9 201 -2 23 -1 47 3 52 8 13 230 101 411 162 69 24 128 46 131 49
4 3 10 79 14 168 3 90 8 172 10 184 2 11 7 60 11 107 3 48 8 95 9 104 5 23 -5
28 -35 16z"/>
<path d="M6015 7721 c-2 -4 -4 -533 -4 -1174 l0 -1167 63 0 c52 0 64 3 68 18
13 52 14 2238 0 2307 -4 23 -9 24 -63 24 -33 -1 -61 -4 -64 -8z"/>
<path d="M4840 7544 c-8 -1 -49 -8 -90 -14 -413 -67 -721 -361 -820 -783 -77
-330 -18 -645 175 -932 52 -78 204 -230 278 -279 78 -51 206 -109 292 -132 75
-20 296 -27 385 -11 254 45 465 168 604 351 33 43 66 106 66 125 0 9 -119 67
-123 60 -100 -155 -164 -222 -279 -291 -293 -174 -624 -161 -888 35 -194 145
-351 402 -385 631 -46 304 65 657 268 860 186 185 420 265 676 231 128 -16
236 -55 326 -116 46 -31 128 -109 167 -159 15 -19 40 -52 56 -72 l29 -37 54
31 c30 17 56 32 58 34 2 2 -16 36 -39 76 -107 179 -308 320 -535 373 -61 14
-232 26 -275 19z"/>
<path d="M11679 7505 c-4 -11 -20 -76 -34 -145 -14 -69 -30 -143 -35 -165 -10
-42 -38 -172 -46 -215 -2 -14 -11 -54 -19 -90 -17 -77 -72 -334 -79 -370 -2
-14 -25 -119 -50 -235 -24 -115 -47 -221 -50 -235 -2 -14 -32 -151 -65 -305
-33 -154 -62 -291 -65 -305 -3 -14 -7 -35 -10 -47 -5 -23 -4 -23 99 -23 l105
0 6 28 c3 15 10 43 14 62 5 19 32 143 60 275 28 132 58 272 66 310 9 39 18 81
20 95 2 14 7 39 11 55 4 17 8 37 9 45 3 17 17 82 19 90 1 6 23 105 29 135 3
11 16 72 30 135 14 63 28 131 31 150 6 34 51 234 62 275 3 11 7 32 10 48 10
55 9 57 136 -178 48 -88 116 -213 155 -285 16 -30 41 -75 54 -100 14 -25 47
-85 73 -135 92 -175 129 -240 147 -267 10 -14 18 -31 18 -38 0 -7 8 -24 18
-38 11 -15 47 -81 82 -147 35 -66 66 -124 70 -130 4 -5 29 -50 55 -100 92
-174 118 -220 137 -247 27 -38 61 -47 164 -39 17 1 24 13 37 64 23 87 99 420
113 497 3 14 9 41 14 60 5 19 11 46 13 60 3 14 19 93 37 175 18 83 33 157 35
165 2 8 19 92 39 185 20 94 38 179 40 190 2 11 23 112 46 224 23 112 44 216
46 230 3 14 7 33 9 41 2 8 7 29 9 46 3 17 13 66 21 110 8 43 15 85 15 92 0 9
-26 12 -98 12 l-98 0 -14 -67 c-8 -38 -15 -72 -16 -78 -1 -5 -12 -57 -24 -115
-12 -58 -23 -112 -25 -120 -21 -104 -78 -363 -85 -390 -5 -19 -11 -48 -13 -65
-3 -16 -10 -50 -16 -75 -5 -25 -12 -58 -15 -75 -7 -37 -14 -72 -21 -105 -3
-14 -7 -34 -9 -45 -2 -11 -20 -94 -39 -185 -54 -254 -58 -273 -63 -300 -3 -14
-13 -54 -23 -89 l-17 -63 -31 48 c-17 27 -51 87 -75 134 -25 47 -78 146 -118
220 -40 74 -93 173 -118 220 -25 47 -48 90 -52 95 -4 6 -38 69 -75 140 -37 72
-71 135 -75 140 -4 6 -35 64 -70 130 -34 66 -70 134 -80 150 -9 17 -39 71 -65
120 -26 50 -60 113 -75 140 -15 28 -48 90 -75 138 -26 49 -53 91 -60 94 -7 2
-43 5 -80 6 -59 2 -69 -1 -76 -18z"/>
<path d="M7115 6979 c-22 -4 -56 -10 -75 -13 -19 -3 -53 -12 -75 -19 -251 -90
-426 -287 -496 -557 -26 -100 -31 -299 -10 -390 88 -379 385 -630 747 -632 56
0 110 2 120 6 11 3 35 8 54 11 185 30 379 166 458 321 l21 41 -37 11 c-87 26
-90 25 -116 -16 -25 -41 -108 -123 -153 -154 -119 -80 -283 -117 -433 -96 -55
8 -174 54 -191 74 -6 8 -16 14 -21 14 -5 0 -26 16 -46 35 -20 19 -40 35 -44
35 -12 0 -114 133 -146 190 -45 82 -69 176 -63 256 l1 21 671 -1 c778 -1 690
-18 684 129 -9 201 -111 420 -254 547 -56 49 -141 104 -200 130 -115 49 -296
75 -396 57z m237 -134 c238 -61 442 -294 465 -533 4 -46 3 -66 -7 -72 -17 -10
-1181 -7 -1199 4 -19 12 -8 108 23 197 107 309 415 482 718 404z"/>
<path d="M8697 6973 c-99 -17 -114 -21 -232 -70 -50 -20 -146 -73 -204 -112
-11 -7 -8 -18 14 -59 l27 -50 62 37 c244 149 459 185 656 109 180 -69 273
-227 273 -465 0 -62 -2 -116 -6 -119 -3 -3 -41 2 -84 12 -43 10 -85 19 -94 20
-9 0 -27 4 -41 7 -59 15 -143 22 -268 22 -141 0 -206 -6 -252 -24 -16 -6 -28
-9 -28 -6 0 2 -17 -3 -37 -11 -190 -77 -297 -178 -333 -314 -12 -46 -14 -131
-5 -185 19 -105 87 -223 163 -284 43 -33 130 -80 165 -87 12 -3 45 -9 72 -15
63 -13 214 -13 283 0 142 28 290 104 403 208 l59 55 1 -38 c0 -22 0 -81 -1
-131 l-1 -93 64 0 c59 0 65 2 69 23 6 33 1 938 -6 1047 -13 191 -69 310 -197
413 -121 97 -332 142 -522 110z m238 -777 c82 -8 152 -21 254 -47 116 -31 108
-18 106 -172 -3 -149 -6 -165 -45 -218 -107 -148 -227 -221 -434 -264 -285
-59 -539 112 -532 360 4 124 71 219 200 279 88 41 139 55 241 64 84 8 98 7
210 -2z"/>
<path d="M14056 6983 c-2 -2 -12 -5 -22 -7 -253 -51 -455 -184 -602 -398 -63
-92 -142 -270 -156 -353 -3 -16 -9 -50 -14 -75 -16 -92 -4 -239 30 -349 76
-248 225 -388 458 -430 66 -12 226 -7 295 9 141 32 295 122 415 241 72 72 127
156 112 170 -8 8 -163 52 -166 47 -23 -37 -72 -95 -119 -140 -104 -101 -306
-178 -430 -164 -237 26 -372 187 -393 467 -7 104 -24 99 313 96 297 -3 403 4
518 34 202 54 331 155 376 297 79 252 -74 490 -351 548 -64 13 -253 18 -264 7z
m251 -189 c118 -37 185 -123 186 -237 0 -39 -6 -74 -17 -94 -20 -40 -74 -103
-88 -103 -5 0 -22 -8 -36 -19 -26 -18 -103 -46 -153 -56 -84 -18 -170 -23
-374 -23 -245 -1 -301 3 -308 22 -7 18 77 181 126 246 166 220 447 332 664
264z"/>
<path d="M15817 6959 c-58 -9 -51 1 -200 -279 -24 -47 -92 -173 -149 -280 -58
-107 -129 -240 -158 -295 -29 -55 -60 -113 -70 -130 -10 -16 -41 -75 -70 -130
-69 -132 -80 -143 -81 -85 0 25 -2 54 -4 65 -3 17 -12 118 -20 235 -3 35 -10
119 -22 235 -3 33 -7 78 -8 100 -6 76 -17 200 -20 225 -2 14 -7 70 -11 125 -3
55 -8 107 -10 115 -1 8 -3 33 -3 55 l-1 41 -100 1 -100 1 5 -36 c2 -21 7 -71
10 -112 4 -41 8 -91 10 -110 8 -74 15 -158 20 -220 3 -36 7 -81 10 -100 2 -19
7 -66 10 -105 3 -38 8 -90 10 -115 2 -25 7 -72 10 -105 3 -33 8 -82 10 -110 9
-97 14 -151 20 -230 4 -44 8 -91 11 -105 2 -14 6 -65 10 -115 8 -134 1 -125
104 -125 l89 0 112 208 c62 114 128 236 147 272 19 36 47 88 62 115 37 67 90
165 135 250 20 39 50 93 65 120 35 64 102 188 130 243 25 49 40 61 41 35 0
-10 2 -27 4 -38 7 -37 26 -179 31 -225 2 -25 11 -92 19 -150 9 -58 18 -121 20
-140 3 -19 10 -69 15 -110 6 -41 13 -93 16 -115 2 -22 6 -51 9 -65 9 -59 20
-148 30 -227 3 -24 8 -62 11 -85 3 -24 7 -51 8 -60 3 -26 8 -28 74 -32 75 -3
112 12 134 55 184 363 756 1524 753 1529 -2 4 -47 7 -100 7 l-95 0 -19 -31
c-23 -37 -84 -159 -174 -346 -331 -689 -410 -850 -419 -850 -10 0 -15 23 -28
130 -6 47 -13 96 -15 110 -2 14 -6 48 -9 75 -4 28 -11 84 -17 125 -5 41 -12
89 -14 105 -2 17 -6 48 -9 70 -3 22 -10 78 -16 125 -14 111 -20 152 -24 175
-2 11 -7 47 -10 80 -4 33 -9 71 -11 85 -2 14 -7 45 -10 70 -4 25 -13 52 -21
62 -17 18 -73 26 -127 17z"/>
<path d="M10388 6915 c-2 -1 -25 -5 -53 -9 -172 -20 -316 -109 -416 -256 -55
-80 -59 -75 -59 60 l0 119 -33 6 c-57 11 -90 1 -98 -28 -6 -21 -6 -1069 0
-1354 l1 -73 65 0 c64 0 65 0 66 28 0 15 2 214 3 442 1 228 6 429 10 445 68
290 257 467 516 482 74 5 96 2 164 -21 158 -53 232 -136 265 -297 6 -30 14
-65 17 -79 3 -14 7 -239 8 -500 1 -262 5 -481 9 -487 5 -8 32 -12 71 -12 63 1
64 1 68 31 6 40 2 957 -5 983 -2 11 -8 43 -11 70 -32 226 -163 374 -381 429
-54 13 -199 28 -207 21z"/>
</g>
</svg>
